<svg xmlns="http://www.w3.org/2000/svg" id="Layer_1" viewBox="0 0 1339.28 554.11"><g id="OqVtUG"><path d="M1241.19,410.41c.57.57-.85,2.9-1.45,2.9-2.67,0-.03-4.39,1.45-2.9Z"></path><path d="M524.86,108.78c10.96,8.86,24.87,16.78,37.09,24.52,8.43,5.34,15.85,10.29,24.54,15.25,4.23,2.41,7.56,6.23,12.83,6.65,3.5.28,10.1-5.15,13.34-7,8.48-4.84,17.59-9.61,25.27-14.51,4.98-3.17,9.7-5.55,14.56-8.58,7.38-4.62,13.87-9.35,22.03-14.03,2.51-1.44,3.13-1.86,5.02-3.18,1.76-1.22,4.16-2.01,5.64-3.62,3.52-3.83.6-4.88-.58-8.24-1.95-5.57-4.21-11.52-6.04-17.25-3.69-11.53-3.27-43.71,4.57-53.22.87-1.06,2.54-1.2,2.81-1.55.39-.5.27-2.3.92-3.45,1.92-3.41,5.82-9.36,9.22-11.16,5.79-3.07,14.11-.87,20.56-.7,1.91.05,3.61-.66,4.88-.65,2.14.02,9.13,5.22,11.17,6.92,2.53,2.13,6.22,5.71,7.02,8.76.12.44,1.24-.38,1.73-.06.22.15,3.07,3.02,3.65,3.61.7.71,5.16,11.27,5.81,13.12,1.18,3.34,1.7,6.23,2.92,9.7,1.65,4.71.84,12.14.19,17.23-.83,6.52-12.27,23.36-16.97,28.64-2.53,2.84-7.59,6.22-9.66,8.75-4.68,5.72-1.97,7.2,1.88,11.72,2.41,2.83,2.15,1.21,3.26,2.01,3.53,2.53,9.55,9.14,13.25,12.54,12.99,11.95,26.05,24.82,38.78,36.86,11.7,11.06,23.57,22.44,36.22,33.23.3.26.16,1.17.45,1.39,7.92,5.97,6.94,2.86,10.96-2.61,3.08-4.2,5.79-8.26,8.68-12.7,12.82-19.71,26.43-40.4,40.58-59.88,2.76-3.79,7.28-8.6,9.64-13.11.87-1.66,1.33-3.98,1.95-5.83.26-.77,1.11-1.27,1.34-2.14.95-3.46-2.58-16.5-3.06-21.37-1.36-13.78,3.46-27.28,9.05-39.99.98-2.23,3.62-4.37,4.56-6.09.32-.58-.28-1.37.03-1.94.67-1.24,3.21-3.03,4.37-4.35,4.01-4.56,14.6-15.92,20.32-17.53,6.32-1.78,11.63-.2,12.65,6.85.61,4.17.16,9.47-.03,13.54-.76,16-9.28,35.88-16.24,50.71-2.13,4.53-5.87,9.78-7.77,14.56-1.58,3.97-.57,6.49,2.03,9.73.23.29,2.87,2.03,3.3,2.47,11.28,11.61,23.83,22.41,35.66,33.71.56.54,6.55,4.53,6.99,4.66,2.98.87,6.29-.24,9.08-1.29,14.37-5.43,28.06-13.82,42.01-20.09,11.21-5.04,23.16-10.98,34.93-16.5,4.97-2.33,14.29-4.39,13.13-11.73-.53-3.34-3.09-5.09-4.18-7.51-5.64-12.6-9.3-23.12-7.3-37.33.24-1.71,1.49-2.75,1.78-4.04,1.43-6.5,1.44-14.04,6.21-19.51,3.19-3.68,6.06-7.47,9.46-11.4,2.94-3.39,6.79-4.77,8.56-6.49.41-.4.38-1.55,1.13-2.22,2.8-2.53,12.4-3.02,16.06-2.45.49.08,3.89,1.31,5.04,1.67,6.03,1.9,10.77,4.19,15.58,8.34,1.67,1.45,3.69,2.68,5.57,4.53,8.38,8.25,14.94,18.59,16.95,30.64,1.09,6.54.5,13.04-2.13,19.16-2.72,6.31-9.07,14.24-13.85,19.18-2.16,2.23-4.63,4.48-6.8,6.71-2.43,2.49-7.01,5.54-6.17,9.1.11.47,1.81,4.13,2,4.33.79.83,6.13,4.51,7.59,5.51,4.82,3.3,13.55,8.91,17.98,13.08,4.66,4.38,11.11,9.37,16.18,13.36,18.82,14.83,38.12,29.98,56.04,44.45,1.92,1.55,4.5,5.36,7.15,5.17,3.31-.23,5.86-8.46,8.86-10.56,9.9-16,21.87-36.23,34.21-49.69,5.23-5.71,10.48-13.79,15.78-20.66,1.6-2.07,5.12-4.99,6.33-7.25,1.32-2.48.87-7.2,1.62-10.03,4.7-17.54,15.65-37.17,26.54-52.05,1.5-2.06,3.69-2.6,4.82-3.91.81-.94,2.41-3.16,3.12-4.11,2.5-3.31,5.25-7.79,8.51-10.47,1.34-1.11,8.91-4.27,9.22-3.87.17.23,1.87,4.78,1.95,5.35.73,5.17-3.56,17.96-5.81,23.14-.09.21-1.45,1.46-2.48,3.45-6.2,12.04-12.35,24.89-20.12,35.76-.19.26-1.1.05-1.68.86-2.39,3.32-9.22,13.97-9.53,17.49-.13,1.49,3.31,6.01,4.24,8.04,1.28,2.76,1.75,3.78,3.23,6.47,3.09,5.63,5.52,10.7,8.44,15.83,3.86,6.78,11.64,15.49,10.6,23.39-.27,2.04-1.82,4.91-2.24,6.43-1.53,5.49-2.87,10.44-4.52,15.8-.89,2.88-1.29,7.42-2.44,10.09-.4.94-1.34.5-1.66.86-.55.63-.58,1.6-1.23,2.19-2.69,2.48-4.49-.47-7.63-.65-1.32-4.41-5.28-6.78-7.94-10.01-5.04-6.13-9.29-13.88-14.51-19.42-.87-.93-3.88-4.09-4.88-1.86-.65,1.45-2.64,9.31-2.72,10.78-.06,1.08.8,1.88.84,2.67.04.98-2.08.11-2.08,1.07.01,1.26,1.4,2.59,1.08,4.81-.22,1.51-1.66,2.27-1.69,2.87-1.2,19.26-5.14,38.7-6.69,58.26-1.16,14.63-1.9,29.68-1.41,44.68.82,25.17,6.09,49.18,12.87,73.5,2.9,10.41,4.56,19.73,6.64,30.24,1.23,6.26,4.81,12.17-1.01,17.53-3.61.53-6.8,2.62-10.39,3.14-7.65,1.11-15.77-.76-23.32-1.41-1.7-.15-8.67.03-9-.29-.3-.29.77-3.35,1.12-3.73.57-.61,4.95-1.49,6.21-1.66,7.08-.91,14.21-.35,21.12-.66,2.87-.13,5.75-1.74,7.34-4.13-2.45-4.41-5.5-9.18-7.43-13.81-3.19-7.63-6.57-16.78-9.44-24.52-5.41-14.59-8.93-30.22-11.64-45.57-2.53-14.33-3.69-28.83-4.38-43.18-.19-3.9.31-12.7-.67-15.77-.27-.84-.84-3.2-1.73-3.19-1.68.02-5.02,12.31-5.79,14.58-5.64,16.56-10.1,32.09-14.3,48.78-4.36,17.35-8.97,36.93-11.22,55.69-1.12,9.34-2.31,19.8-3.18,29.86-.49,5.71-2.42,10.32-3.69,15.72-2.19,9.31-1.99,20.8-4.12,30.81-.35,1.65-2.11,8.48-2.96,9.17-.29.24-6.59,2.04-7.21,2.09-.93.08-4.66.08-5.75.05-9.07-.25-19.07-2.38-28.15-2.58-2.42-.05-5.82,1.11-8.68.62-1.49-.26,1.24-1.48-2.16-1.31-11.61.59-22.87-2.04-34.6-1.45-2.52.13-21.31.64-21.92-.3-.29-.46.27-2.01-.62-1.91-1.02.11-1.87.91-2.89,1.02-18.75,1.91-37.36-2.93-56.23-4.86-12.29-1.26-25.28-2.42-37.91-2.85-10.68-.36-21.21-1.06-32.04-2.5-4.94-.66-8.87-2.36-13-2.9-1.67-.22-3.48.78-6.17.32-3.67-.63-8.08-4.5-11.04-5.45-4.37-1.41-12.41-.59-17.25-.11-6.74.66-13.5.56-20.42.51-4.71-.03-4.58-2.57-4.89-2.57-.98.01-2.2,1.03-3.85,1.11-2.47.11-6.1-.62-8.26-1.45-1.15-.44-2.77-.48-2.89-.57-.25-.18,2.64-4.23,2.02-5.74,3.33,0,6.96-1.99,10.17-2.02,1.33-.01,2.38.71,3.08.7,2.23-.05,9.98-1.73,10.87-2.72.38-.43-.27-2.17.15-2.72.41-.54,11.55-3.4,13.06-3.55,5.04-.49,10.28-.84,15.51-1.38,2.37-.24,7.6.73,8.74-.96,1.86-2.76-2.06-14.12-4.23-17.21-5.79-24.06-16.22-46.99-23.31-70.83-5.09-17.1-10.72-35.15-15.94-52.96-1.88-6.43-4.23-12.64-5.64-19.15-5.18.44-2.98,1.8-3.97,5.16-2.64,8.9-5.86,18.36-8.36,27.54-5.62,20.61-11.13,40.69-16.46,61.17-8.13,31.23-15.32,61.69-22.35,93.12-1.55,6.9-3.58,15.22-3.22,21.94-2.59,3.74-2.91,7.91-7.68,9.86-1.57.64-10.54,2.59-12.13,2.51-2.32-.12-4.51-.37-6.78-.48-16.58-.78-32.75-3.03-49.53-2.55-12.14.35-24.97.03-36.85-.5-16.11-.72-31.97-2.57-48.32-3.1-16.69-.54-34.25-.7-50.66-1.29-10-.36-23.13,2.84-32.83-.07-.88-.26-1.46-1.51-2.22-1.66-.84-.16-1.8.85-2.65.69-4.54-.87-13.09-4.59-18.04-5.22-2.99-.38-8.25,1-12.16.49-5.43-.72-9.94-3.17-16.56-3.38-6.55-.21-11.59.98-17.59,2.28-3.66.79-12.74,1.59-16.33,1.13-2.89-.36-10.07-5.34-12.59-5.53-2.74-.2-7.77,1.13-11.04-1.48-.28-.23.07-1.27-.73-1.78-.8-.51-3.03-.73-3.25-.98-.38-.44.14-2.31,0-3.25-.15-1-1.91-.21-2.05-1.09-.64-4.16.89-2.8,1.71-3.58.55-.52.6-1.63,1.19-2.24,3.26-3.35,11.44-4.55,16.1-5.28,17.67-2.78,35.76-3.34,53.3-4.92,5.2-.47,10.46-1.55,15.6-1.87,4.65-.29,10.62,1.86,10.75-4.4.08-3.71-2.08-3.17-2.58-3.98-1.75-2.83-2.93-9.01-4.29-12.06-2.9-6.5-6.93-12.05-9.04-19.13-1.69-5.68-7.72-13.99-9.52-19.66-.98-3.11-1.45-4.96-3.12-8.44-12.36-25.82-25.14-52.72-39.22-79.17-3.46-10.23-9.24-19.28-13.38-29.24-.41-1-1.69-.75-2.4-.54-2.82.84-4.04,10.22-4.83,12.64-2.62,7.98-5.35,16.25-8.09,23.94-3.51,9.86-5.82,19.91-9.42,29.4-3.58,9.43-6.49,22.92-10.19,31.4-.44,1.01-1.77.26-1.97,1.22-2.81,13.82-8.84,29.41-13.06,43.09-4.43,14.35-10.98,31.06-14.05,45.16-1.87,8.57-5.59,20.2-9.3,29.5-1.31,3.3-1.68,8.62-2.88,11.72-3.91,10.15-12.7,6.64-18.92,12.1-1.55,1.36-1.78,4.22-1.97,4.37s-1.74-1.21-1.92-.99c-.26.33.38,2.4-.08,2.84-.27.26-1.43-.03-2.11.28-.93.43-1.63,1.38-2.34,1.59-2.56.75-11.55,1.38-14.43,1.18-26.65-1.9-52.92-1.96-79.49-4.93-13.81-1.54-33.78-2.93-46.43-8.92-2.23-1.05-4.79-2.79-5.32-5.31-.52-2.47.64-10.64,3.17-11.94,1.1.57-1.23,1.75,0,1.94,2.2.34,1.07-.75,1.93-1.91.89-1.2,6.31-2.91,7.78-2.91,2.63,0,7.97,1.72,10.74,1.92,1.49.11,3.9-1.05,5.31-.52,15.93,6,27.02,7.28,44.15,9.22,7.88.89,11.57,2.58,18.86,4.37,10.76,2.65,25.8,4.65,36.88,4.9,2.52.06,3.93,1.65,2.79-2.78-.15-.57-5.45-9.74-5.87-10.15-2.61-2.59-4.71-5.56-7.05-8.95-4.12-5.96-8.4-14.63-13.11-20.69-11.02-14.18-21.02-31.63-31.56-46.2-12.12-16.76-21.9-36.43-34.42-52.78-8.81-11.51-19.63-26.36-27.64-39.51-5.62-9.23-15.62-20.29-20.68-29.74-1.02-1.89-.54-4.89-3.61-4.87-3.35.02-2,2.69-2.61,3.46-.25.32-1.26.02-1.57.29-.48.42,0,2.12-.35,3.07-3.35,8.9-8.89,18.95-12.97,27.82-8.89,19.35-18.34,39.66-27.41,59.93-7.62,17.04-15.99,36.22-23.97,53.67-3.14,6.87-8.38,15.25-10.97,22.02-1.09,2.84-1.42,7.16-2.66,9.96-1.24,2.79-4.29,6.98-6.07,10.42-5.22,10.14-9.39,19.59-14.58,30.06-5.37,10.84-10.9,23.75-17.23,35.17-1.42,2.57-6.46,10.89-8.46,11.92-8.73,4.52-17.95,4.31-27.33,5.67-7.43,1.07-14.71,3.51-22.34,2.82-3.76-.34-8.26-1.93-12.16-2.36-2.54-.28-1.34-.69-4.88-1.02-5.44-.5-18.98-5.47-22.83-9.16-1.02-.97-1.14-2.33-1.59-2.76-.65-.63-2.63-.72-3.7-1.64-1.18-1.01-4.39-8.72-3.85-9.17.12-.1,1.47-.33,2.42-.98.67-.46,1.05-1.56,2.05-1.85,5.8-1.73,8.81,2.32,12.65,2.59,1.14.08,2.23-.89,3.66-.81,4.29.24,11.09,2.76,15.57,3,1.41.07,6.55-1.36,7.16-2.14.59-.75,1.49-7.61,2.29-9.84,1.42-3.94,4.68-8.19,6.36-12.08,3.99-9.2,6.7-19.91,10.4-29.39,3.88-9.96,8.01-19.63,12.35-29.38,21.35-48.02,38.79-96.89,57.52-146.27,9.71-25.6,19.74-51.13,29.13-76.64,4.13-11.23,7.76-21.87,11.6-33.04,1.24-3.61,4.1-7.36,4.44-11.09.6-6.54-2.63-2.63-5.88-1.07-.61.29-1.39-.21-1.92.08-1.63.9-5.12,4.45-6.45,5.33-26.18,17.48-53.05,32.26-79.86,48.08-3.82,2.25-7.96,4.83-10.96,6.93-6.5,4.55-12.5,6.35-17.41,10.74-.4.36-9.38,4-10.03,4.1-11.32,1.71-8.47-7.37-9.5-14.81-1.51-10.95-4.72-22.28-5.5-33.25-.35-4.85-.65-8.93,2.88-12.58,14.34-8.09,27.9-17.49,41.75-26.18,25.46-15.96,51.2-31.6,77.28-47.9,3.34-2.09,8.34-3.31,10.57-6.95.58-.94-4.93-10.46-6.83-11.67-3.03-7.08-8.17-12.85-10.98-20.09-.62-1.59-1.13-8.19-1.2-10.4-.31-9.53,1.12-27.84,5.98-35.82,1.87-3.07,5.09-5.7,7.12-8.41,2.14-2.85,3.87-6.31,6.32-9.21.95-1.13,3.27-3.63,4.34-4.4.53-.38,4.66-2.6,5.05-2.71,4.92-1.4,13.89-.83,19.3-1.11,12.37-.63,12.97-1.26,24.42,4.62,5.34,2.74,11.53,5.6,16.81,9.42.8.58.7,1.95,1.1,2.26,1.5,1.18,3.57.74,6.11,4.09,2.51,3.3,2.88,7.59,4.36,10.06.51.84,1.51.33,2.02,1.17.46.77,2.85,6.68,3.4,8.11,3.88,10.16.01,23.94-6.33,32.4-6.49,8.66-14.13,18.08-22.81,25.88-1.43,1.28-6.14,3.78-6.86,4.79-.24.34-.17,5.64,0,5.89.93,1.43,4.97,1.98,6.74,3.01,21.54,12.47,42.93,24.31,63.71,37.24,3.9,2.42,8.85,5.01,13.61,7.71,1.91,1.09,3.93.13,3.29,3.34,1.52-1.34,4.42.63,6.3,1.62,13.9,7.27,27.38,16.42,40.76,24.26,4.42,2.59,15.16,11.01,19.78,10,3.14-.69,8.12-7.19,10.84-9.61,12.72-11.34,27.05-24.63,39.8-36.8,14.06-13.42,26.79-26.33,40.25-40.33,3.43-3.57,12.43-10.9,12.69-15.49.28-4.88-2.38-5.31-4.41-8.3-5.35-7.86-10.3-17.07-13.88-25.9-.71-1.75-2.88-5.85-3.15-7.54-.37-2.34.85-4.04.78-5.66-.09-2.05-1.36-5.73-1.32-7.94.03-1.75,5.85-21.73,6.59-22.65.22-.27,1.24.08,1.78-.75.85-1.29,1.24-3.97,2.39-5.25,3.07-3.42,7.05-6.5,10.68-9.66,5.05-4.39,6.23-7.1,13.77-8.49,2.54-.47,16.42.05,19.04.89.52.17,4.9,2.46,5.06,2.7.5.71.43,2.01.99,2.89,3.72,5.95,8.07,13.44,9.71,20.45.82,3.51.38,6.72.38,10.14-.02,11.53-.35,23.71-4.05,34.76-2.31,6.88-6.59,13.19-9.29,19.82-3.05,7.5,5.68,9.84,10.83,13.04,1.75,1.09,6.92,3.66,7.25,3.92ZM517.14,162.11c-.59-.41-2.09.07-3.07-.3-1.9-.7-5-2.99-6.99-3.71-.45-.16-1.67,3.18-1.36,4.2.24.77,1.33,1.33,1.65,2.3,5.47,16.44,11.02,32.77,16.91,49.08,4.25,11.76,9.88,23.89,12.38,36.01.07.33,2.9,2.64,3.73,5.14,3.48,10.38,11.34,25.95,12.74,35.65.13.91,1.55.15,2,1.18,4.72,10.86,8.51,22.91,12.82,33.62,8.72,21.63,17.39,43.46,26.51,64.71,1.11,2.59-.25,3.59,3.03,5.71,5.24,3.39,3.09-2.42,3.39-2.62,3.06-1.97,2.63-6.01,4.65-9.26.9-1.44,1.14.74,1.47-1.98.77-6.23,11.08-21.38,13.67-28.63,7.49-20.97,17.15-41.38,25.19-62.14,1.6-4.12.69-5.49,4.29-7.86.22-.15-1.02-2.04.29-5.04,8.62-19.89,17.21-40.61,24.81-60.58,3.93-10.33,7.15-21.11,11.4-31.3-.08-4.93,7.33-17.02,6.17-20.77-.28-.92-1.58-1.77-2.31-2.46l-18.23,10.79c-9.89,3.84-19.94,11.26-29.8,15.82-10.65,4.93-21.78,11.9-33.29,16.21-3.42,1.28-8.19,2.94-11.86,2.77-2.73-.12-9.29-4.54-12.41-6.09-3.55-1.77-4.87-2.7-8.44-4.17-1.63-.67-3.49-3.03-4.89-3.85-13.24-7.76-27.82-13.68-38.95-22.63-2.05-1.64-12.51-5.71-14.43-7.48-.79-.73-.81-2.12-1.07-2.3ZM926.59,175.81c-.72-.68-2.52-.8-3.67-1.72-2.75-2.22-5.5-5.76-7.81-7.72-.65-.55-5.58-3.67-5.8-3.42-.38.45.77,2.01.55,2.97-1.3,5.64-.49,3.83.14,9.38,3.41,30.19,5.56,62.86,14.64,91.2,1.93,6.03,4.17,17.75,5.33,23.84,2.36,12.34,11.38,28.94,11.3,40.89,0,.95,1.82.13,2.03,1.16,1.6,7.75,3.74,14.74,5.97,21.05,1.1,3.12,2.43,6.14,3.5,9.14.76,2.14,1.26,4.42,2.14,6.51.8,1.9,3.45-.16,4.34-1.4,3.71-5.17,6.54-11.17,9.79-16.41,11.01-17.78,21.08-34.05,31.05-51.43,2.55-4.45,7.2-14.29,9.67-17.5,2.25-2.93,1.89-.35,2.87-3.93,1.09-4.01,5.86-10.05,7.76-13.58,16.26-30.26,32.09-60.53,45.93-91.87.72-1.62,2.68-3.87,2.95-4.81.24-.83.32-4.05.15-4.21-.46-.46-5.93.79-7.07,1.18-3.19,1.1-7.25,4.28-10.11,5.41-5.45,2.15-10.54,3.85-16.08,6.24-20.85,9-41.8,17.08-63.09,25.22-1.1.42-1.71,1.71-3.14,1.8-1.06.07-1.98-.57-2.9-.6-.75-.03-1.56.64-2.7.42-1.18-.23-8.13-4.29-9.4-5.24-9.26-6.97-19.97-14.65-28.36-22.53ZM1143.98,191.26c-.24-.32-1.57-.42-2.27-1.09-4.46-4.27-8.49-8.36-12.6-12.67-1.16-1.22-2.82-.74-3.89-1.93-1.18.66-.33,2.88-.06,3.93,1.63,6.17,5.05,13.18,7.79,19.39,4.48,10.16,8.92,19.93,13.34,29.36,11.36,24.26,25.25,50.86,30.37,75.44.91,4.37,3.12,10.36,4.57,14.81,5,15.4,10.12,30.47,15.12,46.02.47,1.45,1.9,8.62,2.19,8.98.12.15,3.68.15,3.8,0,.14-.17.89-3.67.99-4.36,3.7-27.5,7.5-54.98,12.8-82.29.38-1.97.62-7.11.94-7.31.47-.29,1.71.23,1.86-.69,1.74-10.71,5.24-23.36,8.67-33.76.33-1.01,1.42-.44,1.88-.7.14-.08-.95-1.6-.75-3.07.87-6.36,5.7-14.68,7.18-21.04.25-1.07-.76-2.08-.44-3.28.32-1.19,2.67-2.24,1.84-4.55l-6.25,10.73c-3.03,6.62-5.91,13.97-9.03,19.99-1.29,2.49-5.22,10.24-7.66,10.93-.3.08-5.84-.79-6.08-.98-.39-.32-.68-3.28-1.2-3.67-.42-.32-1.81-.09-2.75-.61-5.24-2.89-20.39-18.42-24.58-22.51-5.31-5.17-10.77-9.16-15.98-14.16-6.36-6.11-14.41-13.72-19.8-20.91ZM455,203.61c.82-.61,3.59-15.68,4.81-19.03,1.24-3.38,1.9-7.86-2.69-4.63-4.03,2.84-8.39,9.77-11.63,13.57-8.94,10.5-17.79,19.73-27.23,30.06-1.48,1.63-3.75,5.89-5.02,7.1-.76.73-2.93.7-3.55,1.31s-.87,2.06-2.79,4c-4.86,4.9-8.67,9.91-13.58,14.57-2.78,2.63-8.11,9.62-10.4,11.43-1.29,1.02-2.85.67-3.32,1.03-.52.39-.8,3.35-1.2,3.67-.32.26-7.07,1.19-8.15,1.05-2.08-.27-2.92-1.54-4.44-2.4-3.16-1.78-1.67-.99-3.79-2.94-4.29-3.94-16-8.94-21.35-12.62-13.83-9.53-27.15-18.81-40.76-27.17-11.18-6.87-21.66-15.49-32.02-21.35-4.75-2.68-11.26-8.16-15.89-11.3-1.42-.96-6.51-5.74-7.42-2.28-.59,2.23,3.6,7.02,4.72,8.86,5.36,8.76,10.93,16.49,15.7,24.24,9.73,15.81,17.85,30.43,27.63,45.97,2.06,3.28,4.74,6.43,7.03,8.98.24.27,2.04,3.15,2.09,3.34.39,1.35-1.05,3.05-.85,3.16,4.86,2.81,3.89,8.04,5.95,10.58,9.41,11.62,16.95,26.08,25.2,38.36,16.05,23.89,33.58,48.7,46.95,73.34,2.13,3.92,3.75,6.37,5.5,10.06.47,1,1.65,4.31,1.82,4.48.2.2,5.55.28,5.75.07.19-.19-.14-3.2.03-4.34,1.33-9.05,5.09-18.78,7.52-27.41,14-49.73,30.88-98.71,44.06-148.08,2.88-10.8,6.54-21.86,10.14-32.22.86-2.46-1.83-1.27,1.16-3.49ZM740.94,179.45c-.63,0-.63.97,0,.97s.63-.97,0-.97ZM752.38,189.9c-2.28-2.48-4.84-5.37-7.11-7.99-.78-.9-.63-2.09-1.41-2.46-1.28.99-1.61,1.72-1.47,3.36.14,1.65,2.64,9.09,3.38,11.22,7.14,20.44,17.26,48.81,27.19,66.94,6.15,11.24,10.2,25.87,14.3,38.11,1.49,4.44,5.89,13.03,6.45,16.92.22,1.49-.94,3.03-.8,3.11,4.51,2.57,4.5,9.41,6.24,14.65,4.22,12.71,8.66,24.09,12.92,36.57,2.97,8.71,5.1,16.74,8.74,25.27.71,1.66-.48,3.22,3.57,2.17,1.26-.33.91-1.35,1.01-1.96.3-1.77.2-4.18.64-6.09.78-3.35,1.82-6.57,2.52-10.1,4.57-23.18,8.21-46.44,13.05-69.44,1.02-4.83,1.68-11.4,2.85-15.59.32-1.16,2.2-2.41,2.6-4.2,1.24-5.55,1.71-13.17,3.11-19.21,4.62-19.95,11.56-39.33,16.68-59.02.94-3.62,1.82-7.29,2.91-10.75.57-1.79-.09-1.82-.22-3.53-2.08,2.36-5.68,5.17-7.26,7.78-.95,1.57-1.33,4.56-2.4,6.18-5.58,8.45-11.11,17.66-16.75,28.04-3.13,5.77-5.71,12.36-9.06,18.11-1.01,1.74-5.38,8.38-6.86,8.69-.25.05-4.88-.89-5.09-1.04-.24-.17-.01-1.19-.35-1.49-11.13-9.67-20.77-20.71-30.87-31.82-3.7-4.07-7.64-9.02-11.13-12.09-8.48-7.46-19.25-21.51-27.37-30.35ZM242.15,184.3c-.63,0-.63.97,0,.97s.63-.97,0-.97ZM872.43,195.95c-.76-.62-2.72.32-1.94.96s2.72-.32,1.94-.96ZM1166.43,421.18c-.3-.29-1.72-.17-2.45-1.02-.3-.36.26-1.51-.17-2.62-3.93-9.98-7.55-18.45-11.38-28.51-7.12-18.73-15.05-37.5-22.37-56.23-9.64-24.66-18.26-49.97-29.13-73.74-.48-1.05-.27-2.33-.63-3.25-.92-2.35-3.56-3.98-6.09-3.62-.38.06-3.74,5.44-4.39,6.37-8.29,11.81-15.98,23.81-23.6,35.17-.92,1.38-4.77,4.48-5.37,5.24-.35.45-.46,2.65-1.28,4.06-8.41,14.52-22.18,28.52-29.47,42.36-1.58,2.99-10.07,14.05-12.06,15.6-.23.18,1.07,1.6.88,1.78-3.53,3.36-2.32,2.62-4.78,6.28-.37.56-3.61,2.6-3.96,3.14-8.31,12.55-15.39,26.38-24.68,37.24-1.9,2.22-7.53,10.71-7.36,13.11.07,1.04.32,1.3,1.02,1.95,1.97,1.87,13.55,4.11,17.04,5.28,7.47,2.51,8.73,4.78,17.37,4.87,6.42.06,12.17.82,18.32,2.13,3.66.78,8.79,5.25,12.95,5.44,11.27.53,23.45,3.21,34.54,4.38,23.19,2.45,47.03,4.66,69.87,6.8,6.02.56,13.9,2.29,19.63,2.22,1.18-.02,6.78-.66,7.32-1.01,3.39-2.22-1.85-9.46-2.75-11.89-1.11-2.99-1.91-7.53-3.11-10.34-.41-.97-1.53-.26-1.95-1.24-.32-.75-2.55-7.2-2.58-7.6-.04-.66,1.04-1.94.6-2.36ZM723.84,262.06c-4.86-2.41-4.76-5.33-8.07.9-12.7,23.92-23.87,47.77-36.6,72.08-11.69,22.33-25.7,46.51-36.22,67.62-4.55,9.14-8.9,18.11-13.65,27.1-1.6,3.02-4.2,4.81-4.31,8.74,2.35-.12,4.58,2.07,6.31,2.57,13.18,3.79,25.57,3.96,38.38,6.67,16.41,3.47,32.66,6.11,48.95,8.84,6.72,1.13,13.93,1.28,21.16,2.52,18.32,3.16,36.71,6.09,55.47,7.61,2.14.17,5.95,2.55,7.18-1.61,1.05-3.56-1.37-5.33-2.34-8.09-9.48-27.09-20.3-54.53-30.74-80.85-11.4-28.72-25.03-58.42-34.9-86.38-1.2-3.41-2.49-7.99-4.41-9.62-1.47-1.24-5.52-15.2-6.21-18.12ZM821.49,398.76c-.63,0-.63.97,0,.97s.63-.97,0-.97ZM823.43,398.76c-.63,0-.63.97,0,.97s.63-.97,0-.97Z"></path><path d="M238.27,477.37c1.37,0-1.46,2.82-1.45,1.45,0-.1,1.35-1.45,1.45-1.45Z"></path></g></svg>